<svg width="24" height="24" viewBox="0 0 24 24" fill="none" xmlns="http://www.w3.org/2000/svg">
<path d="M19 8.4C19.4971 8.4 19.9 7.99706 19.9 7.5C19.9 7.00294 19.4971 6.6 19 6.6V8.4ZM10 6.6C9.50294 6.6 9.1 7.00294 9.1 7.5C9.1 7.99706 9.50294 8.4 10 8.4V6.6ZM19 6.6H10V8.4H19V6.6Z" fill="#262F56"/>
<circle cx="5.5" cy="7.5" r="4.5" fill="#262F56"/>
<path d="M14 17.4C14.4971 17.4 14.9 16.9971 14.9 16.5C14.9 16.0029 14.4971 15.6 14 15.6V17.4ZM5 15.6C4.50294 15.6 4.1 16.0029 4.1 16.5C4.1 16.9971 4.50294 17.4 5 17.4V15.6ZM14 15.6H5V17.4H14V15.6Z" fill="#262F56"/>
<circle cx="18.5" cy="16.5" r="4.5" fill="#262F56"/>
</svg>
