<svg width="163" height="163" viewBox="0 0 163 163" fill="none" xmlns="http://www.w3.org/2000/svg">
<path fill-rule="evenodd" clip-rule="evenodd" d="M27.5469 61.8821C27.5469 61.9676 27.6056 62.1074 27.6773 62.1926C27.7942 62.3307 28.0954 63.0834 29.8619 67.6449C30.1223 68.3173 30.399 69.0141 30.4768 69.1934C30.555 69.3727 30.8501 70.1062 31.1333 70.8234C31.91 72.7917 34.2364 78.5802 34.4744 79.1364C34.5893 79.4054 35.3203 81.2391 36.0991 83.2114C36.8778 85.1837 37.6969 87.2343 37.9198 87.7681C38.7152 89.6752 36.7205 90.6426 34.0644 89.6377C32.4222 89.0159 31.7678 88.7978 31.7242 88.8573C31.7005 88.8899 31.3285 89.7233 30.8973 90.7094C30.4666 91.6956 29.8297 93.0729 29.4825 93.7697C28.6814 95.3773 28.6573 95.2698 29.9511 95.8631C35.8513 98.5672 41.1203 98.3313 44.3893 95.216C45.9867 93.6931 47.6611 90.4466 49.2772 85.7379C49.5075 85.0676 50.0282 83.6882 51.1232 80.8479C51.3477 80.2652 51.5943 79.605 51.6709 79.3809C51.7475 79.1568 52.0067 78.46 52.2467 77.8324C52.4871 77.2049 52.9252 76.0313 53.2202 75.2244C53.5152 74.4176 54.1395 72.7672 54.6073 71.5569C55.6371 68.8931 56.1265 67.6009 56.6754 66.0964C56.9044 65.4689 57.1664 64.772 57.2577 64.5479C57.536 63.8637 58.1892 62.0271 58.1901 61.9269C58.1929 61.5866 52.6921 62.1979 51.1819 62.7056C47.8762 63.8169 48.0494 63.5206 44.7479 73.7265C43.8893 76.3797 43.2625 78.0724 43.1517 78.0354C43.051 78.0019 42.6492 77.0622 42.2588 75.9473C41.8681 74.8324 41.3281 73.2969 41.0588 72.5349C40.7894 71.7729 40.1268 69.8291 39.5865 68.2154C38.5213 65.0353 38.2327 64.4786 37.3415 63.8825C37.0196 63.6673 36.7197 63.4465 36.6749 63.3918C36.0159 62.5879 27.5469 61.1869 27.5469 61.8821ZM88.5822 62.0887C88.4971 62.1702 86.887 63.1681 85.0044 64.3059C83.1217 65.4436 81.4518 66.4893 81.2937 66.6298C80.8536 67.0202 80.9363 84.9665 81.3854 86.4714C82.0052 88.5505 82.788 89.6259 84.3524 90.5476C86.3891 91.7481 91.2045 91.7742 93.667 90.5982L94.4584 90.2204L94.5028 87.1642C94.5276 85.438 94.4836 84.1079 94.4009 84.1079C94.3206 84.1079 93.9339 84.2237 93.5415 84.3655C91.7562 85.0097 89.8495 84.6259 89.3919 83.5301C89.1075 82.85 89.0492 74.4164 89.3271 74.2444C89.4188 74.1877 90.6474 74.1283 92.0574 74.1124L94.6214 74.0834L94.6658 70.9457L94.7098 67.8079H92.1931C88.8288 67.8079 89.1609 68.14 89.1609 64.7749C89.1609 61.9281 89.0904 61.6009 88.5822 62.0887ZM66.0149 67.2362C65.8804 67.2712 64.9635 67.4228 63.9774 67.5728C61.3551 67.9717 58.7259 68.7215 58.4582 69.1462C58.2121 69.5361 59.056 71.2448 59.948 72.1645C61.1485 73.4017 61.6233 73.5252 64.9851 73.475C68.1644 73.4274 68.6881 73.5243 69.792 74.367C70.9929 75.2843 71.6457 77.9078 70.6196 77.6947C60.8787 75.671 55.2043 78.8104 56.3653 85.5802C57.3506 91.3264 65.3507 93.4723 70.0471 89.2502C71.03 88.3663 71.0671 88.3586 71.0711 89.0387C71.0736 89.4645 71.2684 89.7685 72.0646 90.5872L73.0553 91.6059H75.8919H78.7289L78.7256 82.9262C78.7211 72.5529 78.6841 72.3463 76.4265 70.1205C74.4913 68.213 68.563 66.5708 66.0149 67.2362ZM119.479 70.389C119.479 73.3544 119.368 73.7591 118.841 72.7252C117.578 70.2509 112.556 67.8079 108.732 67.8079C102.636 67.8079 97.6418 71.6132 96.1817 77.3707C94.0493 85.777 102.524 93.8431 111.286 91.7461C114.096 91.0733 115.668 90.286 117.495 88.6352C118.191 88.0065 119.642 86.2656 119.642 86.0594C119.642 85.0643 120.33 84.9364 120.636 85.8744C122.196 90.656 128.946 93.0285 135.822 91.2123C139.841 90.1503 141.8 88.1165 142.899 83.8634C143.163 82.843 143.194 81.9286 143.195 75.2244L143.195 67.7264L141.321 67.6792C135.732 67.5378 135.276 68.2097 135.168 76.7583C135.087 83.2057 135.052 83.4535 134.11 84.4588C132.8 85.8569 130.105 85.8695 128.81 84.4832C127.874 83.4816 127.881 83.5289 127.779 77.0174C127.642 68.2065 127.42 67.8499 121.965 67.6853L119.479 67.6103V70.389ZM111.219 75.3471C115.187 77.982 114.113 84.2823 109.528 85.266C104.249 86.3981 101.362 78.4465 105.916 75.3169C107.254 74.3972 109.81 74.4119 111.219 75.3471ZM68.7586 80.9294C68.8115 81.5721 68.0361 85.2078 67.5067 86.7974C67.1518 87.8634 66.2989 88.0615 65.6978 87.2176L65.3462 86.7237L64.8486 87.2901C63.7818 88.5057 61.7801 87.1845 62.7341 85.8944C63.1872 85.2811 63.1717 85.1442 62.6334 85.0089C61.4101 84.7021 61.424 83.8406 62.6656 83.0464C63.1542 82.7338 63.5837 82.4779 63.62 82.4779C63.6942 82.4779 66.1135 81.0904 66.9929 80.5435C67.9489 79.949 68.6905 80.1112 68.7586 80.9294Z" fill="#353737"/>
<path fill-rule="evenodd" clip-rule="evenodd" d="M0 81.5V163H81.5H163V81.5V0H81.5H0V81.5ZM32.0295 61.7778C37.3853 62.6389 38.666 63.8002 40.12 69.112C40.206 69.4258 40.3409 69.8292 40.4199 70.0085C40.499 70.1878 40.8075 71.068 41.1053 71.9645C41.8315 74.152 41.8323 74.1516 42.7256 71.4201C43.6115 68.7106 43.9705 68.2391 45.8107 67.3703C46.4611 67.0631 46.8217 66.7827 46.9228 66.506C47.0047 66.2807 47.1942 65.7526 47.3438 65.332C47.9403 63.6539 49.3495 62.8569 53.3096 61.9571C54.5011 61.6865 58.517 61.528 58.517 61.7517C58.517 61.8548 57.885 63.6079 57.1123 65.6478C56.3397 67.6874 55.5052 69.9066 55.2578 70.579C55.0101 71.2514 54.4632 72.7184 54.0422 73.839C53.6213 74.9596 53.0569 76.4633 52.7884 77.1805C52.5198 77.8977 52.2321 78.6312 52.149 78.8105C51.977 79.1825 51.2223 81.2148 51.0296 81.826C50.9591 82.0501 50.7509 82.6003 50.5667 83.0485C50.3829 83.4968 49.9249 84.707 49.5487 85.738C49.1726 86.769 48.7741 87.8326 48.6632 88.1015C48.552 88.3705 48.2305 89.1692 47.9485 89.8758C46.7264 92.9377 45.0031 95.3403 43.1836 96.5192C42.7508 96.7996 42.1469 97.4039 41.8413 97.8628C38.915 102.253 33.0507 103.353 26.732 100.696C24.3714 99.7034 24.4203 100.056 26.113 96.2258C27.5515 92.9715 27.6167 92.8904 28.4639 93.2943C29.3628 93.723 29.1856 93.9255 30.5132 90.954C30.7736 90.3713 31.1428 89.5453 31.3339 89.1186C31.6065 88.5098 31.7455 88.3631 31.9777 88.4369C32.276 88.5318 32.3787 88.3419 32.1517 88.1149C32.0845 88.0477 32.0234 87.9438 32.0156 87.8843C32.0083 87.8244 31.9252 87.5921 31.831 87.368C31.7373 87.1439 31.4317 86.392 31.1522 85.6973C30.8726 85.0025 30.4125 83.8655 30.1297 83.1708C29.8469 82.476 29.4158 81.394 29.1721 80.7665C28.5099 79.0623 27.0613 75.4564 26.8143 74.8985C26.6957 74.6295 26.3763 73.8227 26.1044 73.1055C25.8331 72.3883 25.1297 70.632 24.5417 69.2025C23.3241 66.244 23.2882 66.0578 23.9202 65.9853C24.5865 65.9082 28.0486 66.1674 28.5658 66.3324C29.1778 66.528 29.1464 66.2326 28.3665 64.4665C28.0177 63.6772 27.384 61.9502 27.384 61.79C27.384 61.5663 30.6607 61.5578 32.0295 61.7778ZM89.4499 64.5871L89.4943 67.4743L92.2209 67.5187L94.9475 67.5635L94.9919 70.8117C95.0449 74.7204 95.2804 74.4013 92.3815 74.3476C89.1431 74.2877 89.487 73.7518 89.487 78.8586C89.487 84.7747 89.8509 85.2029 93.8452 83.9841C94.9528 83.6463 94.8823 83.4377 94.8811 87.0383C94.8803 90.5689 94.9202 90.4467 93.6003 90.9247C87.9328 92.9768 82.8912 91.4495 81.3215 87.205L80.9295 86.1455L80.8839 76.3435L80.8382 66.5415L82.5139 65.5227C85.0563 63.9771 86.7706 62.9306 87.042 62.7587C89.5367 61.1776 89.3957 61.0708 89.4499 64.5871ZM71.1772 67.3284C75.5831 68.3553 77.4156 69.8443 78.7775 73.504C79.112 74.4026 79.4344 90.3953 79.1418 91.5616C79.0493 91.9304 79.0354 91.932 75.969 91.932H72.8895L71.9005 90.8317C71.317 90.183 70.9099 89.5811 70.9083 89.3648C70.9038 88.8733 70.8276 88.8949 69.9983 89.6247C65.0989 93.9377 56.9009 91.3908 56.0467 85.2906C55.1299 78.7453 61.9999 74.9417 70.3753 77.3574C70.9343 77.5187 70.9005 76.2375 70.3235 75.3867C69.3206 73.9091 68.4421 73.6471 64.6727 73.7017C61.6254 73.7461 61.473 73.7131 60.1763 72.7273C59.1653 71.9588 57.7538 69.3211 58.1445 68.9303C59.5288 67.546 67.7668 66.5333 71.1772 67.3284ZM111.166 67.7147C111.569 67.8435 112.441 68.1189 113.102 68.3268C115.213 68.9902 117.42 70.4315 118.59 71.9111C119.298 72.8064 119.316 72.7595 119.316 70.0085V67.482L121.883 67.4812C127.516 67.4796 127.812 67.9294 127.946 76.6915C128.024 81.7852 128.08 82.8138 128.305 83.3105C129.28 85.4646 132.351 85.9149 134.03 84.1504C134.82 83.3207 134.863 82.9625 134.957 76.5285L135.046 70.4975L135.487 69.5994C136.297 67.9523 137.444 67.5032 140.873 67.491L143.44 67.482V74.9816C143.44 84.6015 143.134 86.2034 140.815 88.7405C137.508 92.3587 128.779 93.2038 124.169 90.3521C123.834 90.1451 123.497 89.976 123.42 89.976C123.074 89.976 121.293 87.8436 120.796 86.8354C120.294 85.8162 119.805 85.531 119.805 86.258C119.805 87.3081 115.78 90.6251 113.567 91.3982C103.061 95.0689 92.9251 86.2616 96.2156 76.3215C97.5791 72.2029 101.475 68.6283 105.271 68.0122C105.591 67.9604 106.039 67.8202 106.268 67.7008C106.85 67.3972 110.201 67.4066 111.166 67.7147ZM106.955 75.1177C103.658 76.2954 102.78 81.2172 105.423 83.7099C107.378 85.5542 110.484 85.4548 112.124 83.4951C115.445 79.5261 111.683 73.4286 106.955 75.1177ZM67.319 80.7099C66.7681 81.0477 65.8227 81.5815 64.7803 82.1434C61.8067 83.7465 61.4844 84.1805 62.8365 84.76C63.6996 85.13 63.6723 85.0473 63.1625 85.738C62.1495 87.1109 63.7086 88.2396 64.8084 86.9295L65.3133 86.3281L65.6234 86.7034C66.9368 88.2922 67.004 88.1871 68.2856 82.5391C68.6886 80.7628 68.6817 80.9299 68.3667 80.6153C68.0395 80.2881 68.002 80.2914 67.319 80.7099ZM106.702 97.3416C106.961 97.5376 107.545 98.0437 108.001 98.4663C114.223 104.234 124.704 104.187 130.797 98.3644C133.05 96.2116 136.451 96.6191 137.158 99.1268C137.218 99.3383 137.348 99.6778 137.448 99.8807C138.473 101.964 132.921 106.602 126.858 108.728C118.893 111.521 107.184 108.728 102.381 102.89C102.106 102.556 101.769 102.154 101.633 101.997C101.243 101.547 101.294 99.3721 101.712 98.6969C102.711 97.0804 105.396 96.3509 106.702 97.3416Z" fill="#075985"/>
<path fill-rule="evenodd" clip-rule="evenodd" d="M24.208 66.8218C24.1525 66.9966 24.221 67.3597 24.36 67.6286C24.4993 67.8976 24.613 68.3055 24.613 68.5349C24.613 68.7643 24.7597 69.0777 24.939 69.2313C25.1183 69.385 25.265 69.5899 25.265 69.6873C25.265 69.7847 25.5213 70.3736 25.8351 70.9958C26.1485 71.6181 26.4064 72.2741 26.4081 72.4534C26.4121 72.9371 26.8583 74.1372 27.3775 75.0614C27.6293 75.5097 27.884 76.2187 27.9435 76.6372C28.0034 77.0557 28.1583 77.4865 28.2887 77.5945C28.4187 77.7025 28.525 77.8793 28.525 77.9877C28.525 78.0961 28.7096 78.5456 28.935 78.9865C29.1603 79.4274 29.4525 80.1462 29.5845 80.5835C29.7161 81.0211 29.8922 81.4612 29.9753 81.5615C30.2512 81.8948 31.133 84.2726 31.133 84.6825C31.133 84.9046 31.2724 85.2253 31.4423 85.3952C31.6126 85.5656 31.8029 85.9507 31.8653 86.251C32.0071 86.9344 32.6395 87.9058 33.4928 88.7514L34.1485 89.4014L35.697 89.4034L37.2455 89.4054L37.2255 88.4551C37.2113 87.7636 37.1114 87.3769 36.8588 87.0354C36.6681 86.7775 36.512 86.4405 36.512 86.2864C36.512 86.1328 36.2561 85.4877 35.9436 84.8537C35.6314 84.2192 35.3022 83.3096 35.2121 82.8321C35.122 82.3545 34.9012 81.7758 34.7206 81.5468C34.5405 81.3174 34.393 81.0175 34.393 80.8797C34.393 80.7424 34.1746 80.2424 33.9073 79.7689C33.64 79.2958 33.373 78.6067 33.3144 78.2379C33.2553 77.8687 33.0381 77.3182 32.8315 77.0138C32.6249 76.7094 32.3877 76.213 32.3042 75.9103C32.2206 75.6075 31.9317 75.0557 31.6624 74.6837C31.2443 74.1067 31.1844 73.9013 31.254 73.2843C31.3241 72.6629 31.2634 72.4616 30.8229 71.8479C30.4696 71.356 30.2789 70.8658 30.208 70.2692C30.1183 69.5113 30.0495 69.3842 29.6542 69.2464C29.2467 69.1042 29.2055 69.0198 29.2304 68.3727C29.2667 67.4334 29.0218 67.2101 27.5315 66.823C25.8726 66.3923 24.3445 66.3915 24.208 66.8218ZM44.2953 69.006C43.6799 69.5577 43.521 69.8063 43.521 70.2179C43.521 70.7183 42.9232 72.4551 42.4236 73.4066C42.1323 73.9612 42.2182 74.6649 42.7276 75.894C43.1551 76.9245 43.4253 76.8544 43.5968 75.6674C43.7345 74.7138 44.1274 73.5117 44.4073 73.1869C44.5235 73.0525 44.6624 72.5496 44.7162 72.0696C44.7696 71.5891 44.8902 71.1042 44.9839 70.9913C45.365 70.5325 45.8267 68.7664 45.6286 68.5276C45.3385 68.178 45.1384 68.2497 44.2953 69.006ZM27.8225 93.9132C27.6709 93.998 27.547 94.1797 27.547 94.317C27.547 94.4544 27.2601 95.1292 26.9093 95.8166C26.3306 96.9507 25.7169 98.2356 25.3979 98.9805C25.2365 99.3578 25.8033 99.8827 26.5177 100.017C26.8164 100.073 27.2577 100.274 27.4985 100.463C27.8029 100.703 28.197 100.815 28.7919 100.833C29.3706 100.85 29.8482 100.983 30.2667 101.242C31.2031 101.82 36.1538 101.943 36.6192 101.4C36.7838 101.208 37.1868 100.978 37.5149 100.89C37.8429 100.802 38.5491 100.437 39.0846 100.08C39.6196 99.7225 40.1375 99.4299 40.2349 99.4299C40.4684 99.4299 40.75 98.8912 40.75 98.4454C40.75 98.0669 40.7427 98.0669 38.9138 98.3823C38.5279 98.4491 38.2133 98.4157 38.0646 98.2926C37.9102 98.1642 37.0528 98.0872 35.5813 98.0693C33.5238 98.044 33.2805 98.009 32.7068 97.6536C32.263 97.3786 31.7524 97.2417 30.9586 97.185C30.0768 97.1219 29.818 97.0436 29.7463 96.8187C29.6966 96.661 29.3567 96.3346 28.9916 96.0929L28.3278 95.6536L28.4354 94.7918C28.5511 93.8667 28.3698 93.6068 27.8225 93.9132ZM28.5112 97.0257C28.6725 97.4523 28.6 97.6369 28.2707 97.6369C28.1187 97.6369 28.036 97.465 28.036 97.1479C28.036 96.573 28.3131 96.5016 28.5112 97.0257ZM103.359 97.7323C103.054 97.9487 102.669 98.1259 102.503 98.1259C102.321 98.1259 102.201 98.2425 102.201 98.4193C102.201 98.5807 102.118 98.7955 102.017 98.8965C101.393 99.5208 101.815 102.527 102.527 102.527C102.723 102.527 103.004 102.773 103.246 103.156C103.465 103.502 103.961 103.974 104.349 104.205C105.001 104.594 105.561 105.077 106.079 105.698C106.194 105.837 106.446 105.95 106.639 105.95C106.831 105.95 107.14 106.091 107.325 106.265C107.889 106.791 110.228 107.906 110.77 107.906C111.051 107.906 111.613 108.083 112.021 108.3C113.716 109.201 120.289 109.782 122.497 109.226C122.917 109.121 123.858 108.993 124.589 108.943C125.515 108.879 126.051 108.758 126.359 108.542C126.602 108.371 126.879 108.232 126.974 108.232C127.069 108.232 127.633 108.012 128.226 107.743C128.819 107.474 129.444 107.254 129.614 107.254C129.785 107.254 130.141 107.107 130.407 106.928C130.672 106.749 131.106 106.455 131.371 106.276C131.637 106.097 131.927 105.95 132.016 105.95C132.105 105.95 132.503 105.62 132.901 105.216C133.299 104.813 133.718 104.483 133.834 104.483C134.376 104.483 136.898 101.564 137.012 100.805C137.367 98.4373 134.747 96.6402 132.464 97.685C131.975 97.9096 131.53 98.2286 131.476 98.3949C131.422 98.5607 131.146 98.8431 130.862 99.0224C130.578 99.2017 130.102 99.5 129.804 99.685C129.506 99.8704 129.097 100.176 128.894 100.364C128.475 100.753 126.181 101.875 125.804 101.875C125.668 101.875 125.15 102.092 124.653 102.357C123.674 102.879 119.664 103.335 118.122 103.099C115.157 102.646 114.31 102.46 113.958 102.183C113.743 102.013 113.364 101.875 113.117 101.875C112.869 101.875 112.248 101.655 111.737 101.386C111.225 101.117 110.695 100.897 110.558 100.897C110.285 100.897 108.575 99.5644 107.53 98.5371C106.322 97.3501 104.415 96.9821 103.359 97.7323ZM37.2895 98.9715C37.1889 99.2735 36.8885 99.3077 36.7818 99.0294C36.7141 98.8533 36.7854 98.7779 37.0198 98.7779C37.2056 98.7779 37.3254 98.8639 37.2895 98.9715Z" fill="#75CEED"/>
</svg>
