<svg width="24" height="24" className="fill-current stroke-current" viewBox="0 0 24 24"  xmlns="http://www.w3.org/2000/svg">
<path className="fill-current stroke-current" d="M22.4968 12.0013H1.49979C1.09359 12.0013 0.742082 11.8569 0.445249 11.5681C0.148416 11.2794 0 10.9281 0 10.5145C0 10.1008 0.144511 9.74569 0.433532 9.44911C0.722553 9.15252 1.07797 9.00423 1.49979 9.00423H2.8121C3.12455 9.47252 3.52684 9.83935 4.01896 10.1047C4.51108 10.3701 5.04616 10.5028 5.6242 10.5028C6.20224 10.5028 6.73732 10.3701 7.22944 10.1047C7.72156 9.83935 8.12384 9.47252 8.4363 9.00423H15.5603C15.8727 9.47252 16.275 9.83935 16.7671 10.1047C17.2593 10.3701 17.7943 10.5028 18.3724 10.5028C18.9504 10.5028 19.4855 10.3701 19.9776 10.1047C20.4697 9.83935 20.872 9.47252 21.1845 9.00423H22.4968C22.9186 9.00423 23.274 9.15252 23.563 9.44911C23.8521 9.74569 23.9966 10.1008 23.9966 10.5145C23.9966 10.9281 23.8482 11.2794 23.5513 11.5681C23.2545 11.8569 22.903 12.0013 22.4968 12.0013ZM18.8879 8.86374C18.5911 9.03545 18.2786 9.07447 17.9506 8.98081C17.6225 8.88715 17.3725 8.69203 17.2007 8.39545L13.6621 1.88618C13.4903 1.58959 13.4473 1.2735 13.5332 0.937887C13.6192 0.602277 13.8105 0.348618 14.1074 0.176911C14.4042 0.00520369 14.7167 -0.0338207 15.0447 0.0598378C15.3728 0.153496 15.6228 0.348618 15.7946 0.645204L19.3332 7.15447C19.505 7.45106 19.548 7.76715 19.4621 8.10277C19.3761 8.43837 19.1848 8.69203 18.8879 8.86374ZM6.79591 8.39545C6.62406 8.69203 6.37409 8.88715 6.04601 8.98081C5.71794 9.07447 5.40548 9.03545 5.10865 8.86374C4.81181 8.69203 4.62044 8.43837 4.53451 8.10277C4.44859 7.76715 4.49155 7.45106 4.6634 7.15447L8.20196 0.645204C8.37381 0.348618 8.62377 0.153496 8.95185 0.0598378C9.27993 -0.0338207 9.59238 0.00520369 9.88922 0.176911C10.186 0.348618 10.3774 0.602277 10.4634 0.937887C10.5493 1.2735 10.5063 1.58959 10.3345 1.88618L6.79591 8.39545ZM20.997 22.4911C20.872 23.1154 20.6416 23.5213 20.3057 23.7086C19.9698 23.8959 19.4582 23.9896 18.7708 23.9896H5.31955C4.61653 23.9896 4.08536 23.8959 3.72603 23.7086C3.36671 23.5213 3.12455 23.1154 2.99957 22.4911L1.49979 13.4998H22.4968L20.997 22.4911ZM17.2475 17.9954H14.9979V15.7476C14.9979 15.5447 14.9237 15.3691 14.7752 15.2208C14.6268 15.0725 14.4511 14.9984 14.248 14.9984C14.0449 14.9984 13.8691 15.0725 13.7207 15.2208C13.5723 15.3691 13.4981 15.5447 13.4981 15.7476V17.9954H11.2484C11.0453 17.9954 10.8695 18.0696 10.7211 18.2179C10.5727 18.3662 10.4985 18.5418 10.4985 18.7447C10.4985 18.9476 10.5727 19.1233 10.7211 19.2715C10.8695 19.4198 11.0453 19.494 11.2484 19.494H13.4981V21.7418C13.4981 21.9447 13.5723 22.1203 13.7207 22.2686C13.8691 22.4169 14.0449 22.4911 14.248 22.4911C14.4511 22.4911 14.6268 22.4169 14.7752 22.2686C14.9237 22.1203 14.9979 21.9447 14.9979 21.7418V19.494H17.2475C17.4506 19.494 17.6264 19.4198 17.7748 19.2715C17.9232 19.1233 17.9974 18.9476 17.9974 18.7447C17.9974 18.5418 17.9232 18.3662 17.7748 18.2179C17.6264 18.0696 17.4506 17.9954 17.2475 17.9954Z"/>
</svg>
